<svg xmlns="http://www.w3.org/2000/svg" xmlns:xlink="http://www.w3.org/1999/xlink" width="1280" height="800" viewBox="0 0 1280 800">
  <defs>
    <clipPath id="clip-Buttons_Checkboxes">
      <rect width="1280" height="800"/>
    </clipPath>
  </defs>
  <g id="Buttons_Checkboxes" data-name="Buttons &amp; Checkboxes" clip-path="url(#clip-Buttons_Checkboxes)">
    <rect width="1280" height="800" fill="#1c1c1c"/>
    <line id="Divide" y2="676" transform="translate(653.5 54.5)" fill="none" stroke="#2d2d2d" stroke-width="2"/>
    <g id="Text">
      <path id="Path_77" data-name="Path 77" d="M3.457,0V-28.008h8.887a10.5,10.5,0,0,1,6.436,1.777A5.524,5.524,0,0,1,21.152-21.6,6.61,6.61,0,0,1,19.8-17.461a7.271,7.271,0,0,1-3.73,2.5v.078a7.309,7.309,0,0,1,4.619,2.139,6.513,6.513,0,0,1,1.729,4.7,7.054,7.054,0,0,1-2.832,5.82A11.213,11.213,0,0,1,12.441,0ZM8.086-24.277v7.969h3.008a5.776,5.776,0,0,0,3.8-1.143,3.965,3.965,0,0,0,1.377-3.232q0-3.594-4.8-3.594Zm0,11.7v8.867h3.965a6.029,6.029,0,0,0,4.014-1.2A4.109,4.109,0,0,0,17.48-8.223q0-4.355-6.035-4.355Zm42.674,1.25q0,11.8-11.172,11.8-10.7,0-10.7-11.348V-28.008h4.648v16.172q0,8.242,6.406,8.242,6.172,0,6.172-7.949V-28.008H50.76ZM76.911-24.062H68.864V0H64.216V-24.062H56.188v-3.945H76.911Zm24.452,0H93.316V0H88.667V-24.062H80.64v-3.945h20.723ZM116.947.469a12.6,12.6,0,0,1-9.7-3.926,14.42,14.42,0,0,1-3.643-10.215q0-6.758,3.711-10.781T117.4-28.477a12.316,12.316,0,0,1,9.5,3.906,14.469,14.469,0,0,1,3.6,10.215q0,6.855-3.691,10.84A12.8,12.8,0,0,1,116.947.469Zm.215-24.863a7.792,7.792,0,0,0-6.26,2.871,11.359,11.359,0,0,0-2.412,7.559,11.467,11.467,0,0,0,2.344,7.52,7.557,7.557,0,0,0,6.133,2.852,7.918,7.918,0,0,0,6.348-2.715q2.324-2.715,2.324-7.6,0-5.02-2.256-7.754A7.627,7.627,0,0,0,117.162-24.395ZM160.988,0H155.91L142.531-20.586a9.128,9.128,0,0,1-.84-1.621h-.117a28.834,28.834,0,0,1,.156,3.848V0h-4.492V-28.008h5.41l12.93,20.1q.82,1.25,1.055,1.719h.078a24.887,24.887,0,0,1-.2-3.77V-28.008h4.473Zm7.245-1.113V-5.9a7.391,7.391,0,0,0,1.533,1.055,11.847,11.847,0,0,0,1.885.791,14.853,14.853,0,0,0,1.992.5,10.621,10.621,0,0,0,1.836.176,7.836,7.836,0,0,0,4.365-.977,3.213,3.213,0,0,0,1.436-2.832,3.089,3.089,0,0,0-.479-1.729,5.019,5.019,0,0,0-1.338-1.338,14.058,14.058,0,0,0-2.021-1.162q-1.162-.557-2.49-1.162-1.426-.762-2.656-1.543a11.432,11.432,0,0,1-2.139-1.729,7.232,7.232,0,0,1-1.426-2.139,6.965,6.965,0,0,1-.518-2.793,6.446,6.446,0,0,1,.889-3.428,7.505,7.505,0,0,1,2.344-2.4,10.744,10.744,0,0,1,3.311-1.406,15.721,15.721,0,0,1,3.789-.459,15.293,15.293,0,0,1,6.406,1v4.59a10.232,10.232,0,0,0-6.133-1.719,10.989,10.989,0,0,0-2.061.2,6.125,6.125,0,0,0-1.836.645,3.974,3.974,0,0,0-1.318,1.152,2.824,2.824,0,0,0-.508,1.7,3.213,3.213,0,0,0,.391,1.621,4.182,4.182,0,0,0,1.143,1.25,11.674,11.674,0,0,0,1.836,1.1q1.084.537,2.51,1.162,1.465.762,2.764,1.6a13.028,13.028,0,0,1,2.285,1.855,8.153,8.153,0,0,1,1.563,2.256,6.625,6.625,0,0,1,.576,2.822,6.993,6.993,0,0,1-.859,3.594,6.926,6.926,0,0,1-2.314,2.383,10.309,10.309,0,0,1-3.35,1.328,18.886,18.886,0,0,1-4,.41,17.049,17.049,0,0,1-1.729-.107q-1.025-.107-2.1-.312a19.313,19.313,0,0,1-2.031-.5A6.431,6.431,0,0,1,168.233-1.113Z" transform="translate(220 82)" fill="#cecece"/>
      <path id="Path_76" data-name="Path 76" d="M22.988-1.172A16.979,16.979,0,0,1,15.117.469,12.87,12.87,0,0,1,5.352-3.379a14.019,14.019,0,0,1-3.672-10.1A14.7,14.7,0,0,1,5.811-24.336,14.132,14.132,0,0,1,16.25-28.477a17.109,17.109,0,0,1,6.738,1.152v4.609a12.024,12.024,0,0,0-6.25-1.68,9.809,9.809,0,0,0-7.373,2.91,10.69,10.69,0,0,0-2.822,7.773A10.2,10.2,0,0,0,9.18-6.338a9.176,9.176,0,0,0,6.934,2.744,12.414,12.414,0,0,0,6.875-1.875ZM52.4,0H47.733V-12.148H34.549V0H29.9V-28.008h4.648V-16.23H47.733V-28.008H52.4ZM76.637,0H60.915V-28.008h15.1v3.945H65.563v7.93h9.629v3.926H65.563v8.281H76.637Zm26.112-1.172A16.979,16.979,0,0,1,94.878.469a12.87,12.87,0,0,1-9.766-3.848,14.019,14.019,0,0,1-3.672-10.1,14.7,14.7,0,0,1,4.131-10.859,14.132,14.132,0,0,1,10.439-4.141,17.109,17.109,0,0,1,6.738,1.152v4.609a12.024,12.024,0,0,0-6.25-1.68,9.809,9.809,0,0,0-7.373,2.91A10.69,10.69,0,0,0,86.3-13.711a10.2,10.2,0,0,0,2.637,7.373,9.176,9.176,0,0,0,6.934,2.744,12.414,12.414,0,0,0,6.875-1.875ZM130.853,0H124.8l-9.746-12.812a7.075,7.075,0,0,1-.664-.977h-.078V0h-4.648V-28.008h4.648v13.164h.078a6.443,6.443,0,0,1,.664-.957l9.395-12.207h5.566l-11,13.438ZM135.7,0V-28.008h8.887a10.5,10.5,0,0,1,6.436,1.777,5.524,5.524,0,0,1,2.373,4.629,6.61,6.61,0,0,1-1.348,4.141,7.271,7.271,0,0,1-3.73,2.5v.078a7.309,7.309,0,0,1,4.619,2.139,6.513,6.513,0,0,1,1.729,4.7,7.054,7.054,0,0,1-2.832,5.82A11.213,11.213,0,0,1,144.68,0Zm4.629-24.277v7.969h3.008a5.776,5.776,0,0,0,3.8-1.143,3.965,3.965,0,0,0,1.377-3.232q0-3.594-4.8-3.594Zm0,11.7v8.867h3.965a6.029,6.029,0,0,0,4.014-1.2,4.109,4.109,0,0,0,1.416-3.311q0-4.355-6.035-4.355ZM173,.469a12.6,12.6,0,0,1-9.7-3.926,14.42,14.42,0,0,1-3.643-10.215q0-6.758,3.711-10.781t10.078-4.023a12.316,12.316,0,0,1,9.5,3.906,14.469,14.469,0,0,1,3.6,10.215q0,6.855-3.691,10.84A12.8,12.8,0,0,1,173,.469Zm.215-24.863a7.792,7.792,0,0,0-6.26,2.871,11.359,11.359,0,0,0-2.412,7.559,11.467,11.467,0,0,0,2.344,7.52,7.557,7.557,0,0,0,6.133,2.852,7.918,7.918,0,0,0,6.348-2.715q2.324-2.715,2.324-7.6,0-5.02-2.256-7.754A7.627,7.627,0,0,0,173.213-24.395ZM213.388,0h-5.566l-5.742-10.273a10.322,10.322,0,0,1-.566-1.328h-.078q-.176.43-.586,1.328L194.93,0h-5.605l9.18-14.082-8.437-13.926h5.684l5.059,9.453q.488.938.879,1.875h.059q.566-1.23.977-1.953l5.254-9.375h5.234l-8.633,13.887Zm21.151,0H218.816V-28.008h15.1v3.945H223.464v7.93h9.629v3.926h-9.629v8.281h11.074Zm5.291-1.113V-5.9a7.391,7.391,0,0,0,1.533,1.055,11.847,11.847,0,0,0,1.885.791,14.853,14.853,0,0,0,1.992.5,10.621,10.621,0,0,0,1.836.176,7.836,7.836,0,0,0,4.365-.977,3.213,3.213,0,0,0,1.436-2.832,3.089,3.089,0,0,0-.479-1.729,5.019,5.019,0,0,0-1.338-1.338,14.058,14.058,0,0,0-2.021-1.162q-1.162-.557-2.49-1.162-1.426-.762-2.656-1.543a11.432,11.432,0,0,1-2.139-1.729,7.232,7.232,0,0,1-1.426-2.139,6.965,6.965,0,0,1-.518-2.793,6.446,6.446,0,0,1,.889-3.428,7.505,7.505,0,0,1,2.344-2.4,10.744,10.744,0,0,1,3.311-1.406,15.721,15.721,0,0,1,3.789-.459,15.293,15.293,0,0,1,6.406,1v4.59a10.232,10.232,0,0,0-6.133-1.719,10.989,10.989,0,0,0-2.061.2,6.125,6.125,0,0,0-1.836.645,3.974,3.974,0,0,0-1.318,1.152,2.824,2.824,0,0,0-.508,1.7,3.213,3.213,0,0,0,.391,1.621,4.182,4.182,0,0,0,1.143,1.25,11.674,11.674,0,0,0,1.836,1.1q1.084.537,2.51,1.162,1.465.762,2.764,1.6a13.028,13.028,0,0,1,2.285,1.855,8.153,8.153,0,0,1,1.563,2.256,6.625,6.625,0,0,1,.576,2.822,6.994,6.994,0,0,1-.859,3.594,6.926,6.926,0,0,1-2.314,2.383,10.309,10.309,0,0,1-3.35,1.328,18.886,18.886,0,0,1-4,.41A17.049,17.049,0,0,1,245.5.361q-1.025-.107-2.1-.312a19.313,19.313,0,0,1-2.031-.5A6.431,6.431,0,0,1,239.83-1.113Z" transform="translate(836 82)" fill="#cecece"/>
    </g>
    <g id="Hover-stroked">
      <g id="Rectangle_4" data-name="Rectangle 4" transform="translate(57 145)" fill="#1c1c1c" stroke="#f1ff36" stroke-width="3">
        <rect width="163" height="67" rx="5" stroke="none"/>
        <rect x="1.5" y="1.5" width="160" height="64" rx="3.5" fill="none"/>
      </g>
      <g id="Rectangle_4-2" data-name="Rectangle 4" transform="translate(244 145)" fill="#1c1c1c" stroke="#dc71fd" stroke-width="3">
        <rect width="163" height="67" rx="5" stroke="none"/>
        <rect x="1.5" y="1.5" width="160" height="64" rx="3.5" fill="none"/>
      </g>
      <g id="Rectangle_4-3" data-name="Rectangle 4" transform="translate(431 145)" fill="#1c1c1c" stroke="#e33825" stroke-width="3">
        <rect width="163" height="67" rx="5" stroke="none"/>
        <rect x="1.5" y="1.5" width="160" height="64" rx="3.5" fill="none"/>
      </g>
      <path id="Path_75" data-name="Path 75" d="M19.468,0h-3.5V-9.111H6.079V0H2.593V-21.006H6.079v8.833h9.888v-8.833h3.5ZM30.923.352a7.435,7.435,0,0,1-5.544-2.1,7.593,7.593,0,0,1-2.073-5.574,7.9,7.9,0,0,1,2.161-5.9,7.945,7.945,0,0,1,5.823-2.124,7.2,7.2,0,0,1,5.479,2.065A7.979,7.979,0,0,1,38.73-7.559a7.861,7.861,0,0,1-2.117,5.75A7.6,7.6,0,0,1,30.923.352Zm.161-12.993a3.879,3.879,0,0,0-3.149,1.392,5.827,5.827,0,0,0-1.157,3.838A5.488,5.488,0,0,0,27.949-3.7a3.936,3.936,0,0,0,3.135,1.355,3.734,3.734,0,0,0,3.083-1.333,5.9,5.9,0,0,0,1.077-3.794,5.99,5.99,0,0,0-1.077-3.823A3.717,3.717,0,0,0,31.084-12.642ZM55.107-15l-5.8,15H45.63L40.107-15H43.8L47.124-4.512a9.779,9.779,0,0,1,.469,2.021h.044a10.852,10.852,0,0,1,.41-1.963L51.533-15ZM69.873-6.577H59.648A4.322,4.322,0,0,0,60.93-3.369a4.769,4.769,0,0,0,3.362,1.128A7.413,7.413,0,0,0,68.7-3.677V-.937A10.074,10.074,0,0,1,63.281.352a6.709,6.709,0,0,1-5.193-2.043,8.174,8.174,0,0,1-1.882-5.75,7.993,7.993,0,0,1,2.073-5.706,6.78,6.78,0,0,1,5.149-2.2,5.912,5.912,0,0,1,4.761,1.978,8.21,8.21,0,0,1,1.685,5.493Zm-3.281-2.4a4.379,4.379,0,0,0-.864-2.849,2.888,2.888,0,0,0-2.344-1.018A3.3,3.3,0,0,0,60.9-11.777a4.885,4.885,0,0,0-1.252,2.8Zm15.22-2.783a2.817,2.817,0,0,0-1.772-.483,3.034,3.034,0,0,0-2.52,1.362,6.092,6.092,0,0,0-1.011,3.706V0h-3.4V-15h3.4v3.091h.059A5.225,5.225,0,0,1,78.1-14.377a3.455,3.455,0,0,1,2.307-.886,2.864,2.864,0,0,1,1.406.278Z" transform="translate(96 187)" fill="#f1ff36"/>
      <path id="Path_74" data-name="Path 74" d="M19.468,0h-3.5V-9.111H6.079V0H2.593V-21.006H6.079v8.833h9.888v-8.833h3.5ZM30.923.352a7.435,7.435,0,0,1-5.544-2.1,7.593,7.593,0,0,1-2.073-5.574,7.9,7.9,0,0,1,2.161-5.9,7.945,7.945,0,0,1,5.823-2.124,7.2,7.2,0,0,1,5.479,2.065A7.979,7.979,0,0,1,38.73-7.559a7.861,7.861,0,0,1-2.117,5.75A7.6,7.6,0,0,1,30.923.352Zm.161-12.993a3.879,3.879,0,0,0-3.149,1.392,5.827,5.827,0,0,0-1.157,3.838A5.488,5.488,0,0,0,27.949-3.7a3.936,3.936,0,0,0,3.135,1.355,3.734,3.734,0,0,0,3.083-1.333,5.9,5.9,0,0,0,1.077-3.794,5.99,5.99,0,0,0-1.077-3.823A3.717,3.717,0,0,0,31.084-12.642ZM55.107-15l-5.8,15H45.63L40.107-15H43.8L47.124-4.512a9.779,9.779,0,0,1,.469,2.021h.044a10.852,10.852,0,0,1,.41-1.963L51.533-15ZM69.873-6.577H59.648A4.322,4.322,0,0,0,60.93-3.369a4.769,4.769,0,0,0,3.362,1.128A7.413,7.413,0,0,0,68.7-3.677V-.937A10.074,10.074,0,0,1,63.281.352a6.709,6.709,0,0,1-5.193-2.043,8.174,8.174,0,0,1-1.882-5.75,7.993,7.993,0,0,1,2.073-5.706,6.78,6.78,0,0,1,5.149-2.2,5.912,5.912,0,0,1,4.761,1.978,8.21,8.21,0,0,1,1.685,5.493Zm-3.281-2.4a4.379,4.379,0,0,0-.864-2.849,2.888,2.888,0,0,0-2.344-1.018A3.3,3.3,0,0,0,60.9-11.777a4.885,4.885,0,0,0-1.252,2.8Zm15.22-2.783a2.817,2.817,0,0,0-1.772-.483,3.034,3.034,0,0,0-2.52,1.362,6.092,6.092,0,0,0-1.011,3.706V0h-3.4V-15h3.4v3.091h.059A5.225,5.225,0,0,1,78.1-14.377a3.455,3.455,0,0,1,2.307-.886,2.864,2.864,0,0,1,1.406.278Z" transform="translate(285 187)" fill="#dc71fd"/>
      <path id="Path_73" data-name="Path 73" d="M19.468,0h-3.5V-9.111H6.079V0H2.593V-21.006H6.079v8.833h9.888v-8.833h3.5ZM30.923.352a7.435,7.435,0,0,1-5.544-2.1,7.593,7.593,0,0,1-2.073-5.574,7.9,7.9,0,0,1,2.161-5.9,7.945,7.945,0,0,1,5.823-2.124,7.2,7.2,0,0,1,5.479,2.065A7.979,7.979,0,0,1,38.73-7.559a7.861,7.861,0,0,1-2.117,5.75A7.6,7.6,0,0,1,30.923.352Zm.161-12.993a3.879,3.879,0,0,0-3.149,1.392,5.827,5.827,0,0,0-1.157,3.838A5.488,5.488,0,0,0,27.949-3.7a3.936,3.936,0,0,0,3.135,1.355,3.734,3.734,0,0,0,3.083-1.333,5.9,5.9,0,0,0,1.077-3.794,5.99,5.99,0,0,0-1.077-3.823A3.717,3.717,0,0,0,31.084-12.642ZM55.107-15l-5.8,15H45.63L40.107-15H43.8L47.124-4.512a9.779,9.779,0,0,1,.469,2.021h.044a10.852,10.852,0,0,1,.41-1.963L51.533-15ZM69.873-6.577H59.648A4.322,4.322,0,0,0,60.93-3.369a4.769,4.769,0,0,0,3.362,1.128A7.413,7.413,0,0,0,68.7-3.677V-.937A10.074,10.074,0,0,1,63.281.352a6.709,6.709,0,0,1-5.193-2.043,8.174,8.174,0,0,1-1.882-5.75,7.993,7.993,0,0,1,2.073-5.706,6.78,6.78,0,0,1,5.149-2.2,5.912,5.912,0,0,1,4.761,1.978,8.21,8.21,0,0,1,1.685,5.493Zm-3.281-2.4a4.379,4.379,0,0,0-.864-2.849,2.888,2.888,0,0,0-2.344-1.018A3.3,3.3,0,0,0,60.9-11.777a4.885,4.885,0,0,0-1.252,2.8Zm15.22-2.783a2.817,2.817,0,0,0-1.772-.483,3.034,3.034,0,0,0-2.52,1.362,6.092,6.092,0,0,0-1.011,3.706V0h-3.4V-15h3.4v3.091h.059A5.225,5.225,0,0,1,78.1-14.377a3.455,3.455,0,0,1,2.307-.886,2.864,2.864,0,0,1,1.406.278Z" transform="translate(472 187)" fill="#e33825"/>
    </g>
    <g id="Colored">
      <rect id="Rectangle_5" data-name="Rectangle 5" width="163" height="64" rx="5" transform="translate(57 273)" fill="#f1ff36"/>
      <rect id="Rectangle_5-2" data-name="Rectangle 5" width="163" height="64" rx="5" transform="translate(245 273)" fill="#dc71fd"/>
      <rect id="Rectangle_5-3" data-name="Rectangle 5" width="163" height="64" rx="5" transform="translate(433 273)" fill="#e33825"/>
      <path id="Path_72" data-name="Path 72" d="M28.652-21.006,22.9,0h-3.94l-4-14.692a10.043,10.043,0,0,1-.308-2.051H14.59a9.952,9.952,0,0,1-.352,2.021L10.225,0H6.2L.322-21.006H4.146L7.954-5.625A11.2,11.2,0,0,1,8.247-3.6H8.32a11.469,11.469,0,0,1,.41-2.021l4.307-15.381h3.589l3.984,15.5a12.1,12.1,0,0,1,.308,1.875h.059a11.512,11.512,0,0,1,.337-1.934l3.735-15.439ZM41.543,0h-3.3V-2.344h-.059a4.963,4.963,0,0,1-4.556,2.7,4.8,4.8,0,0,1-3.464-1.2,4.2,4.2,0,0,1-1.252-3.179q0-4.248,4.893-4.951l4.453-.63q0-3.208-3.047-3.208a7.238,7.238,0,0,0-4.834,1.846v-2.974a10.542,10.542,0,0,1,5.479-1.406q5.684,0,5.684,5.6ZM38.262-7.368l-3.149.439a4.992,4.992,0,0,0-2.2.71,2.076,2.076,0,0,0-.74,1.824,2,2,0,0,0,.681,1.56,2.638,2.638,0,0,0,1.824.608,3.365,3.365,0,0,0,2.571-1.091,3.869,3.869,0,0,0,1.018-2.747ZM54.39-11.763a2.817,2.817,0,0,0-1.772-.483,3.034,3.034,0,0,0-2.52,1.362,6.092,6.092,0,0,0-1.011,3.706V0h-3.4V-15h3.4v3.091h.059a5.225,5.225,0,0,1,1.531-2.468,3.455,3.455,0,0,1,2.307-.886,2.864,2.864,0,0,1,1.406.278ZM70.151,0h-3.4V-8.452q0-4.2-2.974-4.2a3.247,3.247,0,0,0-2.563,1.165,4.32,4.32,0,0,0-1.011,2.937V0H56.792V-15h3.413v2.49h.059a5.346,5.346,0,0,1,4.863-2.842,4.529,4.529,0,0,1,3.735,1.589A7.137,7.137,0,0,1,70.151-9.17Zm5.859-18.149a2.043,2.043,0,0,1-1.428-.542,1.783,1.783,0,0,1-.593-1.377,1.829,1.829,0,0,1,.593-1.392,2.013,2.013,0,0,1,1.428-.557,2.076,2.076,0,0,1,1.465.557,1.819,1.819,0,0,1,.6,1.392,1.793,1.793,0,0,1-.6,1.355A2.061,2.061,0,0,1,76.011-18.149ZM77.7,0H74.3V-15h3.4Zm17.8,0h-3.4V-8.452q0-4.2-2.974-4.2a3.247,3.247,0,0,0-2.563,1.165,4.32,4.32,0,0,0-1.011,2.937V0H82.134V-15h3.413v2.49h.059a5.346,5.346,0,0,1,4.863-2.842A4.529,4.529,0,0,1,94.2-13.762,7.137,7.137,0,0,1,95.493-9.17Zm17.8-1.2q0,8.262-8.306,8.262a12.37,12.37,0,0,1-5.112-.981V2.974a9.46,9.46,0,0,0,4.673,1.406q5.347,0,5.347-5.259V-2.52h-.059A5.5,5.5,0,0,1,104.766.352a5.482,5.482,0,0,1-4.417-2,8.085,8.085,0,0,1-1.677-5.369,9.469,9.469,0,0,1,1.8-6.079,5.99,5.99,0,0,1,4.951-2.256,4.772,4.772,0,0,1,4.409,2.432h.059V-15h3.4ZM109.922-6.87V-8.818a3.817,3.817,0,0,0-1.047-2.7,3.431,3.431,0,0,0-2.615-1.121,3.593,3.593,0,0,0-3.025,1.428,6.445,6.445,0,0,0-1.091,3.992,5.548,5.548,0,0,0,1.047,3.538,3.362,3.362,0,0,0,2.776,1.326,3.6,3.6,0,0,0,2.856-1.267A4.775,4.775,0,0,0,109.922-6.87Z" transform="translate(79 316)" fill="#797979"/>
      <path id="Path_71" data-name="Path 71" d="M6.064-7.617V0H2.593V-21.006H8.965a8.44,8.44,0,0,1,5.61,1.685,5.874,5.874,0,0,1,1.992,4.746,6.557,6.557,0,0,1-2.08,5.01A7.9,7.9,0,0,1,8.862-7.617Zm0-10.518v7.676H8.32a4.989,4.989,0,0,0,3.413-1.04,3.712,3.712,0,0,0,1.172-2.93q0-3.706-4.307-3.706ZM32.827,0h-3.4V-2.373H29.37a4.891,4.891,0,0,1-4.6,2.725q-5.317,0-5.317-6.387V-15h3.4v8.613q0,4.043,3.12,4.043a3.153,3.153,0,0,0,2.483-1.113,4.266,4.266,0,0,0,.974-2.915V-15h3.4ZM45.952-11.763a2.817,2.817,0,0,0-1.772-.483,3.034,3.034,0,0,0-2.52,1.362,6.092,6.092,0,0,0-1.011,3.706V0h-3.4V-15h3.4v3.091h.059a5.225,5.225,0,0,1,1.531-2.468,3.455,3.455,0,0,1,2.307-.886,2.864,2.864,0,0,1,1.406.278Zm5.859,9.551h-.059V6.9h-3.4V-15h3.4v2.637h.059a5.569,5.569,0,0,1,5.1-2.988,5.371,5.371,0,0,1,4.453,2.007,8.417,8.417,0,0,1,1.6,5.391,9.346,9.346,0,0,1-1.8,6.006A5.959,5.959,0,0,1,56.235.308,4.915,4.915,0,0,1,51.812-2.212ZM51.724-8.13v1.86a3.97,3.97,0,0,0,1.047,2.783A3.449,3.449,0,0,0,55.43-2.344,3.473,3.473,0,0,0,58.4-3.816a6.851,6.851,0,0,0,1.077-4.109,5.4,5.4,0,0,0-1-3.464,3.3,3.3,0,0,0-2.717-1.252,3.661,3.661,0,0,0-2.922,1.289A4.775,4.775,0,0,0,51.724-8.13ZM69.844,0H66.431V-22.207h3.413ZM86.968-6.577H76.743a4.322,4.322,0,0,0,1.282,3.208,4.769,4.769,0,0,0,3.362,1.128A7.413,7.413,0,0,0,85.8-3.677V-.937A10.074,10.074,0,0,1,80.376.352a6.709,6.709,0,0,1-5.193-2.043A8.174,8.174,0,0,1,73.3-7.441a7.993,7.993,0,0,1,2.073-5.706,6.78,6.78,0,0,1,5.149-2.2,5.912,5.912,0,0,1,4.761,1.978,8.21,8.21,0,0,1,1.685,5.493Zm-3.281-2.4a4.379,4.379,0,0,0-.864-2.849,2.888,2.888,0,0,0-2.344-1.018A3.3,3.3,0,0,0,78-11.777a4.885,4.885,0,0,0-1.252,2.8Z" transform="translate(282 316)" fill="#fdfdfd"/>
      <path id="Path_70" data-name="Path 70" d="M14.385,0H2.593V-21.006H13.916v2.959H6.079V-12.1H13.3v2.944H6.079v6.211h8.306ZM26.44-11.763a2.817,2.817,0,0,0-1.772-.483,3.034,3.034,0,0,0-2.52,1.362,6.092,6.092,0,0,0-1.011,3.706V0h-3.4V-15h3.4v3.091H21.2a5.225,5.225,0,0,1,1.531-2.468,3.455,3.455,0,0,1,2.307-.886,2.864,2.864,0,0,1,1.406.278Zm11.1,0a2.817,2.817,0,0,0-1.772-.483,3.034,3.034,0,0,0-2.52,1.362,6.092,6.092,0,0,0-1.011,3.706V0h-3.4V-15h3.4v3.091H32.3a5.225,5.225,0,0,1,1.531-2.468,3.455,3.455,0,0,1,2.307-.886,2.864,2.864,0,0,1,1.406.278ZM46.333.352a7.435,7.435,0,0,1-5.544-2.1,7.593,7.593,0,0,1-2.073-5.574,7.9,7.9,0,0,1,2.161-5.9A7.945,7.945,0,0,1,46.7-15.352a7.2,7.2,0,0,1,5.479,2.065,7.979,7.979,0,0,1,1.963,5.728,7.861,7.861,0,0,1-2.117,5.75A7.6,7.6,0,0,1,46.333.352Zm.161-12.993a3.879,3.879,0,0,0-3.149,1.392,5.827,5.827,0,0,0-1.157,3.838A5.488,5.488,0,0,0,43.359-3.7a3.936,3.936,0,0,0,3.135,1.355,3.734,3.734,0,0,0,3.083-1.333,5.9,5.9,0,0,0,1.077-3.794,5.99,5.99,0,0,0-1.077-3.823A3.717,3.717,0,0,0,46.494-12.642Zm19.8.879a2.817,2.817,0,0,0-1.772-.483,3.034,3.034,0,0,0-2.52,1.362A6.092,6.092,0,0,0,61-7.178V0H57.6V-15H61v3.091h.059a5.225,5.225,0,0,1,1.531-2.468,3.455,3.455,0,0,1,2.307-.886,2.864,2.864,0,0,1,1.406.278Z" transform="translate(480 316)" fill="#fdfdfd"/>
    </g>
    <g id="Other_buttons" data-name="Other buttons">
      <rect id="Rectangle_6" data-name="Rectangle 6" width="163" height="64" rx="5" transform="translate(57 402)" fill="#2583ff"/>
      <rect id="Rectangle_6-2" data-name="Rectangle 6" width="163" height="64" rx="5" transform="translate(245 402)" fill="#e3a625"/>
      <rect id="Rectangle_6-3" data-name="Rectangle 6" width="163" height="64" rx="5" transform="translate(433 402)" fill="#f46998"/>
      <path id="Path_69" data-name="Path 69" d="M18.75-8.5q0,8.848-8.379,8.848-8.027,0-8.027-8.511V-21.006H5.83V-8.877q0,6.182,4.8,6.182,4.629,0,4.629-5.962V-21.006H18.75Zm8.013,6.284H26.7V6.9h-3.4V-15h3.4v2.637h.059a5.569,5.569,0,0,1,5.1-2.988,5.371,5.371,0,0,1,4.453,2.007,8.417,8.417,0,0,1,1.6,5.391,9.346,9.346,0,0,1-1.8,6.006A5.959,5.959,0,0,1,31.187.308,4.915,4.915,0,0,1,26.763-2.212ZM26.675-8.13v1.86a3.97,3.97,0,0,0,1.047,2.783,3.449,3.449,0,0,0,2.659,1.143,3.473,3.473,0,0,0,2.966-1.472,6.851,6.851,0,0,0,1.077-4.109,5.4,5.4,0,0,0-1-3.464A3.3,3.3,0,0,0,30.7-12.642a3.661,3.661,0,0,0-2.922,1.289A4.775,4.775,0,0,0,26.675-8.13ZM44.795,0H41.382V-22.207h3.413ZM55.869.352a7.435,7.435,0,0,1-5.544-2.1,7.593,7.593,0,0,1-2.073-5.574,7.9,7.9,0,0,1,2.161-5.9,7.945,7.945,0,0,1,5.823-2.124,7.2,7.2,0,0,1,5.479,2.065,7.979,7.979,0,0,1,1.963,5.728,7.861,7.861,0,0,1-2.117,5.75A7.6,7.6,0,0,1,55.869.352Zm.161-12.993a3.879,3.879,0,0,0-3.149,1.392,5.827,5.827,0,0,0-1.157,3.838A5.488,5.488,0,0,0,52.9-3.7,3.936,3.936,0,0,0,56.03-2.344a3.734,3.734,0,0,0,3.083-1.333A5.9,5.9,0,0,0,60.19-7.471a5.99,5.99,0,0,0-1.077-3.823A3.717,3.717,0,0,0,56.03-12.642ZM78.3,0H75V-2.344h-.059a4.963,4.963,0,0,1-4.556,2.7,4.8,4.8,0,0,1-3.464-1.2,4.2,4.2,0,0,1-1.252-3.179q0-4.248,4.893-4.951l4.453-.63q0-3.208-3.047-3.208a7.238,7.238,0,0,0-4.834,1.846v-2.974a10.542,10.542,0,0,1,5.479-1.406q5.684,0,5.684,5.6ZM75.015-7.368l-3.149.439a4.992,4.992,0,0,0-2.2.71,2.076,2.076,0,0,0-.74,1.824,2,2,0,0,0,.681,1.56,2.638,2.638,0,0,0,1.824.608A3.365,3.365,0,0,0,74-3.318a3.869,3.869,0,0,0,1.018-2.747ZM96.079,0h-3.4V-2.549h-.059a5.421,5.421,0,0,1-5.054,2.9,5.455,5.455,0,0,1-4.431-2.014,8.361,8.361,0,0,1-1.663-5.486,9.109,9.109,0,0,1,1.838-5.962,6.016,6.016,0,0,1,4.9-2.241,4.692,4.692,0,0,1,4.409,2.432h.059v-9.287h3.4ZM92.725-6.855V-8.818a3.824,3.824,0,0,0-1.04-2.71,3.469,3.469,0,0,0-2.651-1.113,3.57,3.57,0,0,0-3,1.421,6.331,6.331,0,0,0-1.091,3.94,5.673,5.673,0,0,0,1.047,3.611,3.407,3.407,0,0,0,2.82,1.326,3.526,3.526,0,0,0,2.827-1.282A4.829,4.829,0,0,0,92.725-6.855Z" transform="translate(104 446)" fill="#fdfdfd"/>
      <path id="Path_68" data-name="Path 68" d="M2.593,0V-21.006H8.657q11.616,0,11.616,10.239a10.09,10.09,0,0,1-3.223,7.815A12.3,12.3,0,0,1,8.408,0ZM6.064-18.047v15.1H8.848a7.782,7.782,0,0,0,5.72-2.021,7.677,7.677,0,0,0,2.043-5.713q0-7.368-7.632-7.368ZM30.381.352a7.435,7.435,0,0,1-5.544-2.1,7.593,7.593,0,0,1-2.073-5.574,7.9,7.9,0,0,1,2.161-5.9,7.945,7.945,0,0,1,5.823-2.124,7.2,7.2,0,0,1,5.479,2.065,7.979,7.979,0,0,1,1.963,5.728,7.861,7.861,0,0,1-2.117,5.75A7.6,7.6,0,0,1,30.381.352Zm.161-12.993a3.879,3.879,0,0,0-3.149,1.392,5.827,5.827,0,0,0-1.157,3.838A5.488,5.488,0,0,0,27.407-3.7a3.936,3.936,0,0,0,3.135,1.355,3.734,3.734,0,0,0,3.083-1.333A5.9,5.9,0,0,0,34.7-7.471a5.99,5.99,0,0,0-1.077-3.823A3.717,3.717,0,0,0,30.542-12.642ZM61.816-15,57.393,0h-3.56L51.108-10.166a6.438,6.438,0,0,1-.205-1.318h-.059a6.011,6.011,0,0,1-.264,1.289L47.622,0H44.136L39.727-15h3.516L45.967-4.189A6.405,6.405,0,0,1,46.143-2.9h.1a6.962,6.962,0,0,1,.234-1.318L49.512-15h3.193L55.4-4.146a7.593,7.593,0,0,1,.19,1.289h.1a6.837,6.837,0,0,1,.22-1.289L58.579-15ZM77.7,0H74.3V-8.452q0-4.2-2.974-4.2a3.247,3.247,0,0,0-2.563,1.165,4.32,4.32,0,0,0-1.011,2.937V0H64.336V-15h3.413v2.49h.059a5.346,5.346,0,0,1,4.863-2.842,4.529,4.529,0,0,1,3.735,1.589A7.137,7.137,0,0,1,77.7-9.17Z" transform="translate(260 446)" fill="#fdfdfd"/>
      <path id="Path_67" data-name="Path 67" d="M1.626-.835V-4.424a5.543,5.543,0,0,0,1.15.791,8.885,8.885,0,0,0,1.414.593,11.14,11.14,0,0,0,1.494.374,7.966,7.966,0,0,0,1.377.132,5.877,5.877,0,0,0,3.274-.732,2.41,2.41,0,0,0,1.077-2.124,2.317,2.317,0,0,0-.359-1.3,3.764,3.764,0,0,0-1-1,10.543,10.543,0,0,0-1.516-.872q-.872-.417-1.868-.872Q5.6-10,4.673-10.591a8.574,8.574,0,0,1-1.6-1.3A5.424,5.424,0,0,1,2-13.491a5.224,5.224,0,0,1-.388-2.095,4.835,4.835,0,0,1,.667-2.571,5.629,5.629,0,0,1,1.758-1.8,8.058,8.058,0,0,1,2.483-1.055,11.79,11.79,0,0,1,2.842-.344,11.47,11.47,0,0,1,4.8.747v3.442a7.674,7.674,0,0,0-4.6-1.289,8.241,8.241,0,0,0-1.545.146,4.594,4.594,0,0,0-1.377.483,2.981,2.981,0,0,0-.989.864,2.118,2.118,0,0,0-.381,1.274,2.41,2.41,0,0,0,.293,1.216,3.136,3.136,0,0,0,.857.938,8.755,8.755,0,0,0,1.377.828q.813.4,1.882.872,1.1.571,2.073,1.2a9.771,9.771,0,0,1,1.714,1.392,6.115,6.115,0,0,1,1.172,1.692,4.969,4.969,0,0,1,.432,2.117,5.245,5.245,0,0,1-.645,2.7A5.2,5.2,0,0,1,12.693-.952a7.732,7.732,0,0,1-2.512,1,14.164,14.164,0,0,1-3,.308,12.787,12.787,0,0,1-1.3-.081Q5.112.19,4.307.037A14.485,14.485,0,0,1,2.783-.337,4.823,4.823,0,0,1,1.626-.835ZM20.259-18.149a2.043,2.043,0,0,1-1.428-.542,1.783,1.783,0,0,1-.593-1.377,1.829,1.829,0,0,1,.593-1.392,2.013,2.013,0,0,1,1.428-.557,2.076,2.076,0,0,1,1.465.557,1.819,1.819,0,0,1,.6,1.392,1.793,1.793,0,0,1-.6,1.355A2.061,2.061,0,0,1,20.259-18.149ZM21.943,0h-3.4V-15h3.4ZM40.034-1.2q0,8.262-8.306,8.262a12.37,12.37,0,0,1-5.112-.981V2.974A9.46,9.46,0,0,0,31.289,4.38q5.347,0,5.347-5.259V-2.52h-.059A5.5,5.5,0,0,1,31.509.352a5.482,5.482,0,0,1-4.417-2,8.085,8.085,0,0,1-1.677-5.369,9.469,9.469,0,0,1,1.8-6.079,5.99,5.99,0,0,1,4.951-2.256,4.772,4.772,0,0,1,4.409,2.432h.059V-15h3.4ZM36.665-6.87V-8.818a3.817,3.817,0,0,0-1.047-2.7A3.431,3.431,0,0,0,33-12.642a3.593,3.593,0,0,0-3.025,1.428,6.445,6.445,0,0,0-1.091,3.992,5.548,5.548,0,0,0,1.047,3.538A3.362,3.362,0,0,0,32.71-2.358a3.6,3.6,0,0,0,2.856-1.267A4.775,4.775,0,0,0,36.665-6.87ZM57.817,0h-3.4V-8.452q0-4.2-2.974-4.2a3.247,3.247,0,0,0-2.563,1.165,4.32,4.32,0,0,0-1.011,2.937V0H44.458V-15h3.413v2.49h.059a5.346,5.346,0,0,1,4.863-2.842,4.529,4.529,0,0,1,3.735,1.589A7.137,7.137,0,0,1,57.817-9.17ZM74.165,0H70.576V-21.006h3.589ZM92.314,0h-3.4V-8.452q0-4.2-2.974-4.2a3.247,3.247,0,0,0-2.563,1.165,4.32,4.32,0,0,0-1.011,2.937V0H78.955V-15h3.413v2.49h.059a5.346,5.346,0,0,1,4.863-2.842,4.529,4.529,0,0,1,3.735,1.589A7.137,7.137,0,0,1,92.314-9.17Z" transform="translate(466 446)" fill="#fdfdfd"/>
      <path id="Path_66" data-name="Path 66" d="M20.9-11.108V-2H14.844v-9.106H5.811v-6.03h9.033V-26.2H20.9v9.058H30v6.03Z" transform="translate(63 448)" fill="#fdfdfd"/>
      <rect id="Rectangle_7" data-name="Rectangle 7" width="52" height="64" rx="5" transform="translate(357 402)" fill="#f1b22c"/>
      <path id="Polygon_1" data-name="Polygon 1" d="M10.5,0,21,20H0Z" transform="translate(393 448) rotate(180)" fill="#fff"/>
    </g>
    <g id="Hover-Rounded">
      <g id="h1">
        <g id="Rectangle_8" data-name="Rectangle 8" transform="translate(57 524)" fill="#1c1c1c" stroke="#f1ff36" stroke-width="3">
          <rect width="163" height="67" rx="30" stroke="none"/>
          <rect x="1.5" y="1.5" width="160" height="64" rx="28.5" fill="none"/>
        </g>
        <path id="Path_65" data-name="Path 65" d="M19.468,0h-3.5V-9.111H6.079V0H2.593V-21.006H6.079v8.833h9.888v-8.833h3.5ZM30.923.352a7.435,7.435,0,0,1-5.544-2.1,7.593,7.593,0,0,1-2.073-5.574,7.9,7.9,0,0,1,2.161-5.9,7.945,7.945,0,0,1,5.823-2.124,7.2,7.2,0,0,1,5.479,2.065A7.979,7.979,0,0,1,38.73-7.559a7.861,7.861,0,0,1-2.117,5.75A7.6,7.6,0,0,1,30.923.352Zm.161-12.993a3.879,3.879,0,0,0-3.149,1.392,5.827,5.827,0,0,0-1.157,3.838A5.488,5.488,0,0,0,27.949-3.7a3.936,3.936,0,0,0,3.135,1.355,3.734,3.734,0,0,0,3.083-1.333,5.9,5.9,0,0,0,1.077-3.794,5.99,5.99,0,0,0-1.077-3.823A3.717,3.717,0,0,0,31.084-12.642ZM55.107-15l-5.8,15H45.63L40.107-15H43.8L47.124-4.512a9.779,9.779,0,0,1,.469,2.021h.044a10.852,10.852,0,0,1,.41-1.963L51.533-15ZM69.873-6.577H59.648A4.322,4.322,0,0,0,60.93-3.369a4.769,4.769,0,0,0,3.362,1.128A7.413,7.413,0,0,0,68.7-3.677V-.937A10.074,10.074,0,0,1,63.281.352a6.709,6.709,0,0,1-5.193-2.043,8.174,8.174,0,0,1-1.882-5.75,7.993,7.993,0,0,1,2.073-5.706,6.78,6.78,0,0,1,5.149-2.2,5.912,5.912,0,0,1,4.761,1.978,8.21,8.21,0,0,1,1.685,5.493Zm-3.281-2.4a4.379,4.379,0,0,0-.864-2.849,2.888,2.888,0,0,0-2.344-1.018A3.3,3.3,0,0,0,60.9-11.777a4.885,4.885,0,0,0-1.252,2.8Zm15.22-2.783a2.817,2.817,0,0,0-1.772-.483,3.034,3.034,0,0,0-2.52,1.362,6.092,6.092,0,0,0-1.011,3.706V0h-3.4V-15h3.4v3.091h.059A5.225,5.225,0,0,1,78.1-14.377a3.455,3.455,0,0,1,2.307-.886,2.864,2.864,0,0,1,1.406.278Z" transform="translate(96 567)" fill="#f1ff36"/>
      </g>
      <g id="h2">
        <g id="Rectangle_8-2" data-name="Rectangle 8" transform="translate(245 524)" fill="#1c1c1c" stroke="#dc71fd" stroke-width="3">
          <rect width="163" height="67" rx="30" stroke="none"/>
          <rect x="1.5" y="1.5" width="160" height="64" rx="28.5" fill="none"/>
        </g>
        <path id="Path_64" data-name="Path 64" d="M19.468,0h-3.5V-9.111H6.079V0H2.593V-21.006H6.079v8.833h9.888v-8.833h3.5ZM30.923.352a7.435,7.435,0,0,1-5.544-2.1,7.593,7.593,0,0,1-2.073-5.574,7.9,7.9,0,0,1,2.161-5.9,7.945,7.945,0,0,1,5.823-2.124,7.2,7.2,0,0,1,5.479,2.065A7.979,7.979,0,0,1,38.73-7.559a7.861,7.861,0,0,1-2.117,5.75A7.6,7.6,0,0,1,30.923.352Zm.161-12.993a3.879,3.879,0,0,0-3.149,1.392,5.827,5.827,0,0,0-1.157,3.838A5.488,5.488,0,0,0,27.949-3.7a3.936,3.936,0,0,0,3.135,1.355,3.734,3.734,0,0,0,3.083-1.333,5.9,5.9,0,0,0,1.077-3.794,5.99,5.99,0,0,0-1.077-3.823A3.717,3.717,0,0,0,31.084-12.642ZM55.107-15l-5.8,15H45.63L40.107-15H43.8L47.124-4.512a9.779,9.779,0,0,1,.469,2.021h.044a10.852,10.852,0,0,1,.41-1.963L51.533-15ZM69.873-6.577H59.648A4.322,4.322,0,0,0,60.93-3.369a4.769,4.769,0,0,0,3.362,1.128A7.413,7.413,0,0,0,68.7-3.677V-.937A10.074,10.074,0,0,1,63.281.352a6.709,6.709,0,0,1-5.193-2.043,8.174,8.174,0,0,1-1.882-5.75,7.993,7.993,0,0,1,2.073-5.706,6.78,6.78,0,0,1,5.149-2.2,5.912,5.912,0,0,1,4.761,1.978,8.21,8.21,0,0,1,1.685,5.493Zm-3.281-2.4a4.379,4.379,0,0,0-.864-2.849,2.888,2.888,0,0,0-2.344-1.018A3.3,3.3,0,0,0,60.9-11.777a4.885,4.885,0,0,0-1.252,2.8Zm15.22-2.783a2.817,2.817,0,0,0-1.772-.483,3.034,3.034,0,0,0-2.52,1.362,6.092,6.092,0,0,0-1.011,3.706V0h-3.4V-15h3.4v3.091h.059A5.225,5.225,0,0,1,78.1-14.377a3.455,3.455,0,0,1,2.307-.886,2.864,2.864,0,0,1,1.406.278Z" transform="translate(285 567)" fill="#dc71fd"/>
      </g>
      <g id="h3">
        <g id="Rectangle_8-3" data-name="Rectangle 8" transform="translate(433 524)" fill="#1c1c1c" stroke="#e33825" stroke-width="3">
          <rect width="163" height="67" rx="30" stroke="none"/>
          <rect x="1.5" y="1.5" width="160" height="64" rx="28.5" fill="none"/>
        </g>
        <path id="Path_63" data-name="Path 63" d="M19.468,0h-3.5V-9.111H6.079V0H2.593V-21.006H6.079v8.833h9.888v-8.833h3.5ZM30.923.352a7.435,7.435,0,0,1-5.544-2.1,7.593,7.593,0,0,1-2.073-5.574,7.9,7.9,0,0,1,2.161-5.9,7.945,7.945,0,0,1,5.823-2.124,7.2,7.2,0,0,1,5.479,2.065A7.979,7.979,0,0,1,38.73-7.559a7.861,7.861,0,0,1-2.117,5.75A7.6,7.6,0,0,1,30.923.352Zm.161-12.993a3.879,3.879,0,0,0-3.149,1.392,5.827,5.827,0,0,0-1.157,3.838A5.488,5.488,0,0,0,27.949-3.7a3.936,3.936,0,0,0,3.135,1.355,3.734,3.734,0,0,0,3.083-1.333,5.9,5.9,0,0,0,1.077-3.794,5.99,5.99,0,0,0-1.077-3.823A3.717,3.717,0,0,0,31.084-12.642ZM55.107-15l-5.8,15H45.63L40.107-15H43.8L47.124-4.512a9.779,9.779,0,0,1,.469,2.021h.044a10.852,10.852,0,0,1,.41-1.963L51.533-15ZM69.873-6.577H59.648A4.322,4.322,0,0,0,60.93-3.369a4.769,4.769,0,0,0,3.362,1.128A7.413,7.413,0,0,0,68.7-3.677V-.937A10.074,10.074,0,0,1,63.281.352a6.709,6.709,0,0,1-5.193-2.043,8.174,8.174,0,0,1-1.882-5.75,7.993,7.993,0,0,1,2.073-5.706,6.78,6.78,0,0,1,5.149-2.2,5.912,5.912,0,0,1,4.761,1.978,8.21,8.21,0,0,1,1.685,5.493Zm-3.281-2.4a4.379,4.379,0,0,0-.864-2.849,2.888,2.888,0,0,0-2.344-1.018A3.3,3.3,0,0,0,60.9-11.777a4.885,4.885,0,0,0-1.252,2.8Zm15.22-2.783a2.817,2.817,0,0,0-1.772-.483,3.034,3.034,0,0,0-2.52,1.362,6.092,6.092,0,0,0-1.011,3.706V0h-3.4V-15h3.4v3.091h.059A5.225,5.225,0,0,1,78.1-14.377a3.455,3.455,0,0,1,2.307-.886,2.864,2.864,0,0,1,1.406.278Z" transform="translate(472 567)" fill="#e33825"/>
      </g>
    </g>
    <g id="Colored-rounded">
      <g id="Warning">
        <rect id="Rectangle_9" data-name="Rectangle 9" width="163" height="64" rx="30" transform="translate(55 645)" fill="#f1ff36"/>
        <path id="Path_62" data-name="Path 62" d="M28.652-21.006,22.9,0h-3.94l-4-14.692a10.043,10.043,0,0,1-.308-2.051H14.59a9.952,9.952,0,0,1-.352,2.021L10.225,0H6.2L.322-21.006H4.146L7.954-5.625A11.2,11.2,0,0,1,8.247-3.6H8.32a11.469,11.469,0,0,1,.41-2.021l4.307-15.381h3.589l3.984,15.5a12.1,12.1,0,0,1,.308,1.875h.059a11.512,11.512,0,0,1,.337-1.934l3.735-15.439ZM41.543,0h-3.3V-2.344h-.059a4.963,4.963,0,0,1-4.556,2.7,4.8,4.8,0,0,1-3.464-1.2,4.2,4.2,0,0,1-1.252-3.179q0-4.248,4.893-4.951l4.453-.63q0-3.208-3.047-3.208a7.238,7.238,0,0,0-4.834,1.846v-2.974a10.542,10.542,0,0,1,5.479-1.406q5.684,0,5.684,5.6ZM38.262-7.368l-3.149.439a4.992,4.992,0,0,0-2.2.71,2.076,2.076,0,0,0-.74,1.824,2,2,0,0,0,.681,1.56,2.638,2.638,0,0,0,1.824.608,3.365,3.365,0,0,0,2.571-1.091,3.869,3.869,0,0,0,1.018-2.747ZM54.39-11.763a2.817,2.817,0,0,0-1.772-.483,3.034,3.034,0,0,0-2.52,1.362,6.092,6.092,0,0,0-1.011,3.706V0h-3.4V-15h3.4v3.091h.059a5.225,5.225,0,0,1,1.531-2.468,3.455,3.455,0,0,1,2.307-.886,2.864,2.864,0,0,1,1.406.278ZM70.151,0h-3.4V-8.452q0-4.2-2.974-4.2a3.247,3.247,0,0,0-2.563,1.165,4.32,4.32,0,0,0-1.011,2.937V0H56.792V-15h3.413v2.49h.059a5.346,5.346,0,0,1,4.863-2.842,4.529,4.529,0,0,1,3.735,1.589A7.137,7.137,0,0,1,70.151-9.17Zm5.859-18.149a2.043,2.043,0,0,1-1.428-.542,1.783,1.783,0,0,1-.593-1.377,1.829,1.829,0,0,1,.593-1.392,2.013,2.013,0,0,1,1.428-.557,2.076,2.076,0,0,1,1.465.557,1.819,1.819,0,0,1,.6,1.392,1.793,1.793,0,0,1-.6,1.355A2.061,2.061,0,0,1,76.011-18.149ZM77.7,0H74.3V-15h3.4Zm17.8,0h-3.4V-8.452q0-4.2-2.974-4.2a3.247,3.247,0,0,0-2.563,1.165,4.32,4.32,0,0,0-1.011,2.937V0H82.134V-15h3.413v2.49h.059a5.346,5.346,0,0,1,4.863-2.842A4.529,4.529,0,0,1,94.2-13.762,7.137,7.137,0,0,1,95.493-9.17Zm17.8-1.2q0,8.262-8.306,8.262a12.37,12.37,0,0,1-5.112-.981V2.974a9.46,9.46,0,0,0,4.673,1.406q5.347,0,5.347-5.259V-2.52h-.059A5.5,5.5,0,0,1,104.766.352a5.482,5.482,0,0,1-4.417-2,8.085,8.085,0,0,1-1.677-5.369,9.469,9.469,0,0,1,1.8-6.079,5.99,5.99,0,0,1,4.951-2.256,4.772,4.772,0,0,1,4.409,2.432h.059V-15h3.4ZM109.922-6.87V-8.818a3.817,3.817,0,0,0-1.047-2.7,3.431,3.431,0,0,0-2.615-1.121,3.593,3.593,0,0,0-3.025,1.428,6.445,6.445,0,0,0-1.091,3.992,5.548,5.548,0,0,0,1.047,3.538,3.362,3.362,0,0,0,2.776,1.326,3.6,3.6,0,0,0,2.856-1.267A4.775,4.775,0,0,0,109.922-6.87Z" transform="translate(77 688)" fill="#797979"/>
      </g>
      <g id="Purple">
        <rect id="Rectangle_10" data-name="Rectangle 10" width="163" height="64" rx="30" transform="translate(243 645)" fill="#dc71fd"/>
        <path id="Path_61" data-name="Path 61" d="M6.064-7.617V0H2.593V-21.006H8.965a8.44,8.44,0,0,1,5.61,1.685,5.874,5.874,0,0,1,1.992,4.746,6.557,6.557,0,0,1-2.08,5.01A7.9,7.9,0,0,1,8.862-7.617Zm0-10.518v7.676H8.32a4.989,4.989,0,0,0,3.413-1.04,3.712,3.712,0,0,0,1.172-2.93q0-3.706-4.307-3.706ZM32.827,0h-3.4V-2.373H29.37a4.891,4.891,0,0,1-4.6,2.725q-5.317,0-5.317-6.387V-15h3.4v8.613q0,4.043,3.12,4.043a3.153,3.153,0,0,0,2.483-1.113,4.266,4.266,0,0,0,.974-2.915V-15h3.4ZM45.952-11.763a2.817,2.817,0,0,0-1.772-.483,3.034,3.034,0,0,0-2.52,1.362,6.092,6.092,0,0,0-1.011,3.706V0h-3.4V-15h3.4v3.091h.059a5.225,5.225,0,0,1,1.531-2.468,3.455,3.455,0,0,1,2.307-.886,2.864,2.864,0,0,1,1.406.278Zm5.859,9.551h-.059V6.9h-3.4V-15h3.4v2.637h.059a5.569,5.569,0,0,1,5.1-2.988,5.371,5.371,0,0,1,4.453,2.007,8.417,8.417,0,0,1,1.6,5.391,9.346,9.346,0,0,1-1.8,6.006A5.959,5.959,0,0,1,56.235.308,4.915,4.915,0,0,1,51.812-2.212ZM51.724-8.13v1.86a3.97,3.97,0,0,0,1.047,2.783A3.449,3.449,0,0,0,55.43-2.344,3.473,3.473,0,0,0,58.4-3.816a6.851,6.851,0,0,0,1.077-4.109,5.4,5.4,0,0,0-1-3.464,3.3,3.3,0,0,0-2.717-1.252,3.661,3.661,0,0,0-2.922,1.289A4.775,4.775,0,0,0,51.724-8.13ZM69.844,0H66.431V-22.207h3.413ZM86.968-6.577H76.743a4.322,4.322,0,0,0,1.282,3.208,4.769,4.769,0,0,0,3.362,1.128A7.413,7.413,0,0,0,85.8-3.677V-.937A10.074,10.074,0,0,1,80.376.352a6.709,6.709,0,0,1-5.193-2.043A8.174,8.174,0,0,1,73.3-7.441a7.993,7.993,0,0,1,2.073-5.706,6.78,6.78,0,0,1,5.149-2.2,5.912,5.912,0,0,1,4.761,1.978,8.21,8.21,0,0,1,1.685,5.493Zm-3.281-2.4a4.379,4.379,0,0,0-.864-2.849,2.888,2.888,0,0,0-2.344-1.018A3.3,3.3,0,0,0,78-11.777a4.885,4.885,0,0,0-1.252,2.8Z" transform="translate(280 688)" fill="#fdfdfd"/>
      </g>
      <g id="Error">
        <rect id="Rectangle_11" data-name="Rectangle 11" width="163" height="64" rx="30" transform="translate(431 645)" fill="#e33825"/>
        <path id="Path_60" data-name="Path 60" d="M14.385,0H2.593V-21.006H13.916v2.959H6.079V-12.1H13.3v2.944H6.079v6.211h8.306ZM26.44-11.763a2.817,2.817,0,0,0-1.772-.483,3.034,3.034,0,0,0-2.52,1.362,6.092,6.092,0,0,0-1.011,3.706V0h-3.4V-15h3.4v3.091H21.2a5.225,5.225,0,0,1,1.531-2.468,3.455,3.455,0,0,1,2.307-.886,2.864,2.864,0,0,1,1.406.278Zm11.1,0a2.817,2.817,0,0,0-1.772-.483,3.034,3.034,0,0,0-2.52,1.362,6.092,6.092,0,0,0-1.011,3.706V0h-3.4V-15h3.4v3.091H32.3a5.225,5.225,0,0,1,1.531-2.468,3.455,3.455,0,0,1,2.307-.886,2.864,2.864,0,0,1,1.406.278ZM46.333.352a7.435,7.435,0,0,1-5.544-2.1,7.593,7.593,0,0,1-2.073-5.574,7.9,7.9,0,0,1,2.161-5.9A7.945,7.945,0,0,1,46.7-15.352a7.2,7.2,0,0,1,5.479,2.065,7.979,7.979,0,0,1,1.963,5.728,7.861,7.861,0,0,1-2.117,5.75A7.6,7.6,0,0,1,46.333.352Zm.161-12.993a3.879,3.879,0,0,0-3.149,1.392,5.827,5.827,0,0,0-1.157,3.838A5.488,5.488,0,0,0,43.359-3.7a3.936,3.936,0,0,0,3.135,1.355,3.734,3.734,0,0,0,3.083-1.333,5.9,5.9,0,0,0,1.077-3.794,5.99,5.99,0,0,0-1.077-3.823A3.717,3.717,0,0,0,46.494-12.642Zm19.8.879a2.817,2.817,0,0,0-1.772-.483,3.034,3.034,0,0,0-2.52,1.362A6.092,6.092,0,0,0,61-7.178V0H57.6V-15H61v3.091h.059a5.225,5.225,0,0,1,1.531-2.468,3.455,3.455,0,0,1,2.307-.886,2.864,2.864,0,0,1,1.406.278Z" transform="translate(478 688)" fill="#fdfdfd"/>
      </g>
      <g id="Checkboxes-other">
        <g id="On_button" data-name="On button">
          <rect id="Rectangle_13" data-name="Rectangle 13" width="143" height="56" rx="28" transform="translate(703 402)" fill="#2583ff"/>
          <path id="Path_59" data-name="Path 59" d="M11.25.352A9.447,9.447,0,0,1,3.977-2.593a10.815,10.815,0,0,1-2.732-7.661A11.458,11.458,0,0,1,4.028-18.34a9.778,9.778,0,0,1,7.559-3.018,9.237,9.237,0,0,1,7.126,2.93,10.852,10.852,0,0,1,2.7,7.661,11.494,11.494,0,0,1-2.769,8.13A9.6,9.6,0,0,1,11.25.352ZM11.411-18.3a5.844,5.844,0,0,0-4.695,2.153,8.519,8.519,0,0,0-1.809,5.669,8.6,8.6,0,0,0,1.758,5.64,5.668,5.668,0,0,0,4.6,2.139,5.939,5.939,0,0,0,4.761-2.036,8.495,8.495,0,0,0,1.743-5.7,8.906,8.906,0,0,0-1.692-5.815A5.72,5.72,0,0,0,11.411-18.3ZM43.081,0H39.272L29.238-15.439a6.846,6.846,0,0,1-.63-1.216h-.088a21.626,21.626,0,0,1,.117,2.886V0H25.269V-21.006h4.058l9.7,15.073q.615.938.791,1.289h.059a18.665,18.665,0,0,1-.146-2.827V-21.006h3.354Z" transform="translate(730 441)" fill="#fdfdfd"/>
          <ellipse id="Ellipse_3" data-name="Ellipse 3" cx="26" cy="24.5" rx="26" ry="24.5" transform="translate(790 406)" fill="#e2e4e8"/>
        </g>
        <g id="Off_button" data-name="Off button">
          <rect id="Rectangle_14" data-name="Rectangle 14" width="143" height="56" rx="28" transform="translate(1088 402)" fill="#888"/>
          <path id="Path_58" data-name="Path 58" d="M11.25.352A9.447,9.447,0,0,1,3.977-2.593a10.815,10.815,0,0,1-2.732-7.661A11.458,11.458,0,0,1,4.028-18.34a9.778,9.778,0,0,1,7.559-3.018,9.237,9.237,0,0,1,7.126,2.93,10.852,10.852,0,0,1,2.7,7.661,11.494,11.494,0,0,1-2.769,8.13A9.6,9.6,0,0,1,11.25.352ZM11.411-18.3a5.844,5.844,0,0,0-4.695,2.153,8.519,8.519,0,0,0-1.809,5.669,8.6,8.6,0,0,0,1.758,5.64,5.668,5.668,0,0,0,4.6,2.139,5.939,5.939,0,0,0,4.761-2.036,8.495,8.495,0,0,0,1.743-5.7,8.906,8.906,0,0,0-1.692-5.815A5.72,5.72,0,0,0,11.411-18.3Zm25.2.249H28.755v6.313h7.236v2.944H28.755V0H25.269V-21.006H36.606Zm15.073,0H43.828v6.313h7.236v2.944H43.828V0H40.342V-21.006H51.68Z" transform="translate(1153 441)" fill="#fdfdfd"/>
          <ellipse id="Ellipse_4" data-name="Ellipse 4" cx="26" cy="24.5" rx="26" ry="24.5" transform="translate(1093 405)" fill="#e2e4e8"/>
        </g>
        <g id="Am_button" data-name="Am button">
          <rect id="Rectangle_15" data-name="Rectangle 15" width="143" height="56" rx="10" transform="translate(703 542)" fill="#2583ff"/>
          <path id="Path_57" data-name="Path 57" d="M19.849,0H16.025l-1.89-5.347H5.874L4.058,0H.249L8.115-21.006h3.926ZM13.213-8.188,10.3-16.567a9.925,9.925,0,0,1-.278-1.318H9.961a8.575,8.575,0,0,1-.293,1.318L6.782-8.188ZM45.293,0H41.836V-13.594q0-1.67.205-4.087h-.059a14.113,14.113,0,0,1-.571,1.978L35.142,0h-2.4L26.455-15.586a14.681,14.681,0,0,1-.557-2.095H25.84q.117,1.26.117,4.116V0H22.734V-21.006h4.907L33.164-7.017a20.688,20.688,0,0,1,.82,2.4h.073q.542-1.655.879-2.461l5.625-13.931h4.731Z" transform="translate(728 580)" fill="#fdfdfd"/>
          <rect id="Rectangle_17" data-name="Rectangle 17" width="46" height="43" rx="5" transform="translate(796 549)" fill="#e2e4e8"/>
        </g>
        <g id="Pm_button" data-name="Pm button">
          <rect id="Rectangle_16" data-name="Rectangle 16" width="143" height="56" rx="10" transform="translate(1088 542)" fill="#c639f2"/>
          <path id="Path_56" data-name="Path 56" d="M6.064-7.617V0H2.593V-21.006H8.965a8.44,8.44,0,0,1,5.61,1.685,5.874,5.874,0,0,1,1.992,4.746,6.557,6.557,0,0,1-2.08,5.01A7.9,7.9,0,0,1,8.862-7.617Zm0-10.518v7.676H8.32a4.989,4.989,0,0,0,3.413-1.04,3.712,3.712,0,0,0,1.172-2.93q0-3.706-4.307-3.706ZM42.686,0H39.229V-13.594q0-1.67.205-4.087h-.059A14.113,14.113,0,0,1,38.8-15.7L32.534,0h-2.4L23.848-15.586a14.681,14.681,0,0,1-.557-2.095h-.059q.117,1.26.117,4.116V0H20.127V-21.006h4.907L30.557-7.017a20.688,20.688,0,0,1,.82,2.4h.073q.542-1.655.879-2.461l5.625-13.931h4.731Z" transform="translate(1161 580)" fill="#fdfdfd"/>
          <rect id="Rectangle_18" data-name="Rectangle 18" width="46" height="43" rx="5" transform="translate(1093 549)" fill="#e2e4e8"/>
        </g>
      </g>
    </g>
    <g id="Unchecked">
      <g id="Rectangle_12" data-name="Rectangle 12" transform="translate(708 161)" fill="#1c1c1c" stroke="#a2a2a2" stroke-width="3">
        <rect width="46" height="43" rx="5" stroke="none"/>
        <rect x="1.5" y="1.5" width="43" height="40" rx="3.5" fill="none"/>
      </g>
      <path id="Path_55" data-name="Path 55" d="M18.75-8.5q0,8.848-8.379,8.848-8.027,0-8.027-8.511V-21.006H5.83V-8.877q0,6.182,4.8,6.182,4.629,0,4.629-5.962V-21.006H18.75ZM36.665,0h-3.4V-8.452q0-4.2-2.974-4.2a3.247,3.247,0,0,0-2.563,1.165,4.32,4.32,0,0,0-1.011,2.937V0H23.306V-15h3.413v2.49h.059a5.346,5.346,0,0,1,4.863-2.842,4.529,4.529,0,0,1,3.735,1.589A7.137,7.137,0,0,1,36.665-9.17ZM51.548-.688A8.381,8.381,0,0,1,47.285.352a7.219,7.219,0,0,1-5.391-2.087,7.394,7.394,0,0,1-2.051-5.413,8.139,8.139,0,0,1,2.2-5.955,7.882,7.882,0,0,1,5.9-2.249,8.607,8.607,0,0,1,3.618.718v3.164a5.48,5.48,0,0,0-3.34-1.172,4.642,4.642,0,0,0-3.53,1.458,5.329,5.329,0,0,0-1.377,3.816,5.082,5.082,0,0,0,1.3,3.677,4.6,4.6,0,0,0,3.479,1.348,5.437,5.437,0,0,0,3.457-1.3ZM68.247,0h-3.4V-8.2q0-4.453-2.974-4.453a3.11,3.11,0,0,0-2.52,1.289,5.131,5.131,0,0,0-1.025,3.3V0H54.917V-22.207H58.33v9.7h.059a5.367,5.367,0,0,1,4.863-2.842q5,0,5,6.108ZM85.078-6.577H74.854a4.322,4.322,0,0,0,1.282,3.208A4.769,4.769,0,0,0,79.5-2.241a7.413,7.413,0,0,0,4.409-1.436V-.937A10.074,10.074,0,0,1,78.486.352a6.709,6.709,0,0,1-5.193-2.043,8.174,8.174,0,0,1-1.882-5.75,7.993,7.993,0,0,1,2.073-5.706,6.78,6.78,0,0,1,5.149-2.2,5.912,5.912,0,0,1,4.761,1.978,8.21,8.21,0,0,1,1.685,5.493ZM81.8-8.979a4.379,4.379,0,0,0-.864-2.849,2.888,2.888,0,0,0-2.344-1.018,3.3,3.3,0,0,0-2.483,1.069,4.885,4.885,0,0,0-1.252,2.8ZM99.053-.688A8.381,8.381,0,0,1,94.79.352,7.219,7.219,0,0,1,89.4-1.736a7.394,7.394,0,0,1-2.051-5.413,8.139,8.139,0,0,1,2.2-5.955,7.882,7.882,0,0,1,5.9-2.249,8.607,8.607,0,0,1,3.618.718v3.164a5.48,5.48,0,0,0-3.34-1.172,4.642,4.642,0,0,0-3.53,1.458A5.329,5.329,0,0,0,90.82-7.368a5.082,5.082,0,0,0,1.3,3.677A4.6,4.6,0,0,0,95.6-2.344a5.437,5.437,0,0,0,3.457-1.3ZM116.03,0h-4.307l-5.83-7.207h-.059V0h-3.413V-22.207h3.413V-8.13h.059L111.4-15h4.087l-6.2,7.236Zm14.312-6.577H120.117A4.322,4.322,0,0,0,121.4-3.369a4.769,4.769,0,0,0,3.362,1.128,7.413,7.413,0,0,0,4.409-1.436V-.937A10.074,10.074,0,0,1,123.75.352a6.709,6.709,0,0,1-5.193-2.043,8.174,8.174,0,0,1-1.882-5.75,7.993,7.993,0,0,1,2.073-5.706,6.78,6.78,0,0,1,5.149-2.2,5.912,5.912,0,0,1,4.761,1.978,8.21,8.21,0,0,1,1.685,5.493Zm-3.281-2.4a4.379,4.379,0,0,0-.864-2.849,2.888,2.888,0,0,0-2.344-1.018,3.3,3.3,0,0,0-2.483,1.069,4.885,4.885,0,0,0-1.252,2.8ZM147.217,0h-3.4V-2.549h-.059a5.421,5.421,0,0,1-5.054,2.9,5.455,5.455,0,0,1-4.431-2.014,8.361,8.361,0,0,1-1.663-5.486,9.109,9.109,0,0,1,1.838-5.962,6.016,6.016,0,0,1,4.9-2.241,4.692,4.692,0,0,1,4.409,2.432h.059v-9.287h3.4Zm-3.354-6.855V-8.818a3.824,3.824,0,0,0-1.04-2.71,3.469,3.469,0,0,0-2.651-1.113,3.57,3.57,0,0,0-3,1.421,6.331,6.331,0,0,0-1.091,3.94,5.673,5.673,0,0,0,1.047,3.611,3.407,3.407,0,0,0,2.82,1.326,3.526,3.526,0,0,0,2.827-1.282A4.829,4.829,0,0,0,143.862-6.855Z" transform="translate(769 194)" fill="#797979"/>
    </g>
    <g id="Unchecked-radio">
      <g id="Ellipse_1" data-name="Ellipse 1" transform="translate(1011 158)" fill="#1c1c1c" stroke="#a2a2a2" stroke-width="3">
        <ellipse cx="23" cy="22" rx="23" ry="22" stroke="none"/>
        <ellipse cx="23" cy="22" rx="21.5" ry="20.5" fill="none"/>
      </g>
      <path id="Path_54" data-name="Path 54" d="M18.75-8.5q0,8.848-8.379,8.848-8.027,0-8.027-8.511V-21.006H5.83V-8.877q0,6.182,4.8,6.182,4.629,0,4.629-5.962V-21.006H18.75ZM36.665,0h-3.4V-8.452q0-4.2-2.974-4.2a3.247,3.247,0,0,0-2.563,1.165,4.32,4.32,0,0,0-1.011,2.937V0H23.306V-15h3.413v2.49h.059a5.346,5.346,0,0,1,4.863-2.842,4.529,4.529,0,0,1,3.735,1.589A7.137,7.137,0,0,1,36.665-9.17ZM51.548-.688A8.381,8.381,0,0,1,47.285.352a7.219,7.219,0,0,1-5.391-2.087,7.394,7.394,0,0,1-2.051-5.413,8.139,8.139,0,0,1,2.2-5.955,7.882,7.882,0,0,1,5.9-2.249,8.607,8.607,0,0,1,3.618.718v3.164a5.48,5.48,0,0,0-3.34-1.172,4.642,4.642,0,0,0-3.53,1.458,5.329,5.329,0,0,0-1.377,3.816,5.082,5.082,0,0,0,1.3,3.677,4.6,4.6,0,0,0,3.479,1.348,5.437,5.437,0,0,0,3.457-1.3ZM68.247,0h-3.4V-8.2q0-4.453-2.974-4.453a3.11,3.11,0,0,0-2.52,1.289,5.131,5.131,0,0,0-1.025,3.3V0H54.917V-22.207H58.33v9.7h.059a5.367,5.367,0,0,1,4.863-2.842q5,0,5,6.108ZM85.078-6.577H74.854a4.322,4.322,0,0,0,1.282,3.208A4.769,4.769,0,0,0,79.5-2.241a7.413,7.413,0,0,0,4.409-1.436V-.937A10.074,10.074,0,0,1,78.486.352a6.709,6.709,0,0,1-5.193-2.043,8.174,8.174,0,0,1-1.882-5.75,7.993,7.993,0,0,1,2.073-5.706,6.78,6.78,0,0,1,5.149-2.2,5.912,5.912,0,0,1,4.761,1.978,8.21,8.21,0,0,1,1.685,5.493ZM81.8-8.979a4.379,4.379,0,0,0-.864-2.849,2.888,2.888,0,0,0-2.344-1.018,3.3,3.3,0,0,0-2.483,1.069,4.885,4.885,0,0,0-1.252,2.8ZM99.053-.688A8.381,8.381,0,0,1,94.79.352,7.219,7.219,0,0,1,89.4-1.736a7.394,7.394,0,0,1-2.051-5.413,8.139,8.139,0,0,1,2.2-5.955,7.882,7.882,0,0,1,5.9-2.249,8.607,8.607,0,0,1,3.618.718v3.164a5.48,5.48,0,0,0-3.34-1.172,4.642,4.642,0,0,0-3.53,1.458A5.329,5.329,0,0,0,90.82-7.368a5.082,5.082,0,0,0,1.3,3.677A4.6,4.6,0,0,0,95.6-2.344a5.437,5.437,0,0,0,3.457-1.3ZM116.03,0h-4.307l-5.83-7.207h-.059V0h-3.413V-22.207h3.413V-8.13h.059L111.4-15h4.087l-6.2,7.236Zm14.312-6.577H120.117A4.322,4.322,0,0,0,121.4-3.369a4.769,4.769,0,0,0,3.362,1.128,7.413,7.413,0,0,0,4.409-1.436V-.937A10.074,10.074,0,0,1,123.75.352a6.709,6.709,0,0,1-5.193-2.043,8.174,8.174,0,0,1-1.882-5.75,7.993,7.993,0,0,1,2.073-5.706,6.78,6.78,0,0,1,5.149-2.2,5.912,5.912,0,0,1,4.761,1.978,8.21,8.21,0,0,1,1.685,5.493Zm-3.281-2.4a4.379,4.379,0,0,0-.864-2.849,2.888,2.888,0,0,0-2.344-1.018,3.3,3.3,0,0,0-2.483,1.069,4.885,4.885,0,0,0-1.252,2.8ZM147.217,0h-3.4V-2.549h-.059a5.421,5.421,0,0,1-5.054,2.9,5.455,5.455,0,0,1-4.431-2.014,8.361,8.361,0,0,1-1.663-5.486,9.109,9.109,0,0,1,1.838-5.962,6.016,6.016,0,0,1,4.9-2.241,4.692,4.692,0,0,1,4.409,2.432h.059v-9.287h3.4Zm-3.354-6.855V-8.818a3.824,3.824,0,0,0-1.04-2.71,3.469,3.469,0,0,0-2.651-1.113,3.57,3.57,0,0,0-3,1.421,6.331,6.331,0,0,0-1.091,3.94,5.673,5.673,0,0,0,1.047,3.611,3.407,3.407,0,0,0,2.82,1.326,3.526,3.526,0,0,0,2.827-1.282A4.829,4.829,0,0,0,143.862-6.855Z" transform="translate(1076 194)" fill="#797979"/>
    </g>
    <g id="Unchecked-colored" transform="translate(0 91)">
      <g id="Rectangle_12-2" data-name="Rectangle 12" transform="translate(708 161)" fill="#2583ff" stroke="#2583ff" stroke-width="3">
        <rect width="46" height="43" rx="5" stroke="none"/>
        <rect x="1.5" y="1.5" width="43" height="40" rx="3.5" fill="none"/>
      </g>
      <path id="Path_53" data-name="Path 53" d="M17.241-.879a12.734,12.734,0,0,1-5.9,1.23A9.653,9.653,0,0,1,4.014-2.534,10.514,10.514,0,0,1,1.26-10.107a11.028,11.028,0,0,1,3.1-8.145,10.6,10.6,0,0,1,7.83-3.105,12.832,12.832,0,0,1,5.054.864v3.457a9.018,9.018,0,0,0-4.687-1.26,7.357,7.357,0,0,0-5.53,2.183,8.018,8.018,0,0,0-2.117,5.83,7.646,7.646,0,0,0,1.978,5.53,6.882,6.882,0,0,0,5.2,2.058A9.311,9.311,0,0,0,17.241-4.1ZM34.175,0h-3.4V-8.2q0-4.453-2.974-4.453a3.11,3.11,0,0,0-2.52,1.289,5.131,5.131,0,0,0-1.025,3.3V0H20.845V-22.207h3.413v9.7h.059a5.367,5.367,0,0,1,4.863-2.842q5,0,5,6.108ZM51.006-6.577H40.781a4.322,4.322,0,0,0,1.282,3.208,4.769,4.769,0,0,0,3.362,1.128,7.413,7.413,0,0,0,4.409-1.436V-.937A10.074,10.074,0,0,1,44.414.352a6.709,6.709,0,0,1-5.193-2.043,8.174,8.174,0,0,1-1.882-5.75,7.993,7.993,0,0,1,2.073-5.706,6.78,6.78,0,0,1,5.149-2.2,5.912,5.912,0,0,1,4.761,1.978,8.21,8.21,0,0,1,1.685,5.493Zm-3.281-2.4a4.379,4.379,0,0,0-.864-2.849,2.888,2.888,0,0,0-2.344-1.018,3.3,3.3,0,0,0-2.483,1.069,4.885,4.885,0,0,0-1.252,2.8ZM64.98-.688A8.381,8.381,0,0,1,60.718.352a7.219,7.219,0,0,1-5.391-2.087,7.394,7.394,0,0,1-2.051-5.413,8.139,8.139,0,0,1,2.2-5.955,7.882,7.882,0,0,1,5.9-2.249A8.607,8.607,0,0,1,65-14.634v3.164a5.48,5.48,0,0,0-3.34-1.172,4.642,4.642,0,0,0-3.53,1.458,5.329,5.329,0,0,0-1.377,3.816,5.082,5.082,0,0,0,1.3,3.677,4.6,4.6,0,0,0,3.479,1.348,5.437,5.437,0,0,0,3.457-1.3ZM81.958,0H77.651l-5.83-7.207h-.059V0H68.35V-22.207h3.413V-8.13h.059L77.329-15h4.087l-6.2,7.236ZM96.27-6.577H86.045a4.322,4.322,0,0,0,1.282,3.208,4.769,4.769,0,0,0,3.362,1.128A7.413,7.413,0,0,0,95.1-3.677V-.937A10.074,10.074,0,0,1,89.678.352a6.709,6.709,0,0,1-5.193-2.043A8.174,8.174,0,0,1,82.6-7.441a7.993,7.993,0,0,1,2.073-5.706,6.78,6.78,0,0,1,5.149-2.2,5.912,5.912,0,0,1,4.761,1.978A8.21,8.21,0,0,1,96.27-7.881Zm-3.281-2.4a4.379,4.379,0,0,0-.864-2.849,2.888,2.888,0,0,0-2.344-1.018A3.3,3.3,0,0,0,87.3-11.777a4.885,4.885,0,0,0-1.252,2.8ZM113.145,0h-3.4V-2.549h-.059a5.421,5.421,0,0,1-5.054,2.9A5.455,5.455,0,0,1,100.2-1.663,8.361,8.361,0,0,1,98.54-7.148a9.109,9.109,0,0,1,1.838-5.962,6.016,6.016,0,0,1,4.9-2.241,4.692,4.692,0,0,1,4.409,2.432h.059v-9.287h3.4ZM109.79-6.855V-8.818a3.824,3.824,0,0,0-1.04-2.71,3.469,3.469,0,0,0-2.651-1.113,3.57,3.57,0,0,0-3,1.421,6.331,6.331,0,0,0-1.091,3.94,5.673,5.673,0,0,0,1.047,3.611,3.407,3.407,0,0,0,2.82,1.326,3.526,3.526,0,0,0,2.827-1.282A4.829,4.829,0,0,0,109.79-6.855Z" transform="translate(769 194)" fill="#797979"/>
      <g id="Check" transform="translate(0 -91)">
        <path id="Path_12" data-name="Path 12" d="M5.4,9.675,19,25.49" transform="translate(708 259.9)" fill="none" stroke="#efefef" stroke-width="3"/>
        <line id="Line_2" data-name="Line 2" y1="23.89" x2="24.509" transform="translate(724.991 261.5)" fill="none" stroke="#e9e9e9" stroke-width="3"/>
      </g>
    </g>
    <g id="Unchecked-radio-colored" transform="translate(0 94)">
      <path id="Path_52" data-name="Path 52" d="M17.241-.879a12.734,12.734,0,0,1-5.9,1.23A9.653,9.653,0,0,1,4.014-2.534,10.514,10.514,0,0,1,1.26-10.107a11.028,11.028,0,0,1,3.1-8.145,10.6,10.6,0,0,1,7.83-3.105,12.832,12.832,0,0,1,5.054.864v3.457a9.018,9.018,0,0,0-4.687-1.26,7.357,7.357,0,0,0-5.53,2.183,8.018,8.018,0,0,0-2.117,5.83,7.646,7.646,0,0,0,1.978,5.53,6.882,6.882,0,0,0,5.2,2.058A9.311,9.311,0,0,0,17.241-4.1ZM34.175,0h-3.4V-8.2q0-4.453-2.974-4.453a3.11,3.11,0,0,0-2.52,1.289,5.131,5.131,0,0,0-1.025,3.3V0H20.845V-22.207h3.413v9.7h.059a5.367,5.367,0,0,1,4.863-2.842q5,0,5,6.108ZM51.006-6.577H40.781a4.322,4.322,0,0,0,1.282,3.208,4.769,4.769,0,0,0,3.362,1.128,7.413,7.413,0,0,0,4.409-1.436V-.937A10.074,10.074,0,0,1,44.414.352a6.709,6.709,0,0,1-5.193-2.043,8.174,8.174,0,0,1-1.882-5.75,7.993,7.993,0,0,1,2.073-5.706,6.78,6.78,0,0,1,5.149-2.2,5.912,5.912,0,0,1,4.761,1.978,8.21,8.21,0,0,1,1.685,5.493Zm-3.281-2.4a4.379,4.379,0,0,0-.864-2.849,2.888,2.888,0,0,0-2.344-1.018,3.3,3.3,0,0,0-2.483,1.069,4.885,4.885,0,0,0-1.252,2.8ZM64.98-.688A8.381,8.381,0,0,1,60.718.352a7.219,7.219,0,0,1-5.391-2.087,7.394,7.394,0,0,1-2.051-5.413,8.139,8.139,0,0,1,2.2-5.955,7.882,7.882,0,0,1,5.9-2.249A8.607,8.607,0,0,1,65-14.634v3.164a5.48,5.48,0,0,0-3.34-1.172,4.642,4.642,0,0,0-3.53,1.458,5.329,5.329,0,0,0-1.377,3.816,5.082,5.082,0,0,0,1.3,3.677,4.6,4.6,0,0,0,3.479,1.348,5.437,5.437,0,0,0,3.457-1.3ZM81.958,0H77.651l-5.83-7.207h-.059V0H68.35V-22.207h3.413V-8.13h.059L77.329-15h4.087l-6.2,7.236ZM96.27-6.577H86.045a4.322,4.322,0,0,0,1.282,3.208,4.769,4.769,0,0,0,3.362,1.128A7.413,7.413,0,0,0,95.1-3.677V-.937A10.074,10.074,0,0,1,89.678.352a6.709,6.709,0,0,1-5.193-2.043A8.174,8.174,0,0,1,82.6-7.441a7.993,7.993,0,0,1,2.073-5.706,6.78,6.78,0,0,1,5.149-2.2,5.912,5.912,0,0,1,4.761,1.978A8.21,8.21,0,0,1,96.27-7.881Zm-3.281-2.4a4.379,4.379,0,0,0-.864-2.849,2.888,2.888,0,0,0-2.344-1.018A3.3,3.3,0,0,0,87.3-11.777a4.885,4.885,0,0,0-1.252,2.8ZM113.145,0h-3.4V-2.549h-.059a5.421,5.421,0,0,1-5.054,2.9A5.455,5.455,0,0,1,100.2-1.663,8.361,8.361,0,0,1,98.54-7.148a9.109,9.109,0,0,1,1.838-5.962,6.016,6.016,0,0,1,4.9-2.241,4.692,4.692,0,0,1,4.409,2.432h.059v-9.287h3.4ZM109.79-6.855V-8.818a3.824,3.824,0,0,0-1.04-2.71,3.469,3.469,0,0,0-2.651-1.113,3.57,3.57,0,0,0-3,1.421,6.331,6.331,0,0,0-1.091,3.94,5.673,5.673,0,0,0,1.047,3.611,3.407,3.407,0,0,0,2.82,1.326,3.526,3.526,0,0,0,2.827-1.282A4.829,4.829,0,0,0,109.79-6.855Z" transform="translate(1076 194)" fill="#797979"/>
      <ellipse id="Ellipse_1-2" data-name="Ellipse 1" cx="23" cy="22" rx="23" ry="22" transform="translate(1011 158)" fill="#2583ff"/>
      <ellipse id="Ellipse_2" data-name="Ellipse 2" cx="17" cy="16" rx="17" ry="16" transform="translate(1017 164)" fill="#bdd7fa"/>
    </g>
  </g>
</svg>
